<svg width="32" height="32" viewBox="0 0 32 32" fill="none" xmlns="http://www.w3.org/2000/svg">
<g filter="url(#filter0_b_511_173)">
<rect width="32" height="32" rx="6" fill="#1B1B1D"/>
<rect x="0.0894855" y="0.0894855" width="31.821" height="31.821" rx="5.91051" stroke="url(#paint0_linear_511_173)" stroke-width="0.178971"/>
<path d="M11.0497 21.3182C10.7568 21.6111 10.7568 22.086 11.0497 22.3789C11.3426 22.6718 11.8175 22.6718 12.1103 22.3789L11.0497 21.3182ZM21.8078 12.6814C22.1007 12.3885 22.1007 11.9137 21.8078 11.6208C21.5149 11.3279 21.04 11.3279 20.7472 11.6208L21.8078 12.6814ZM15.8193 10.795C15.4051 10.7969 15.0708 11.1342 15.0727 11.5484C15.0745 11.9626 15.4118 12.2969 15.826 12.295L15.8193 10.795ZM17.9502 11.5355L17.9536 12.2855L17.9502 11.5355ZM21.8931 15.4784L22.6431 15.4817L21.8931 15.4784ZM21.1336 17.6026C21.1317 18.0168 21.466 18.3541 21.8802 18.3559C22.2944 18.3578 22.6317 18.0235 22.6336 17.6093L21.1336 17.6026ZM21.0755 11.9733L21.5345 11.3801L21.5345 11.3801L21.0755 11.9733ZM21.4553 12.3531L22.0485 11.8941L22.0485 11.8941L21.4553 12.3531ZM12.1103 22.3789L21.8078 12.6814L20.7472 11.6208L11.0497 21.3182L12.1103 22.3789ZM15.826 12.295L17.9536 12.2855L17.9469 10.7855L15.8193 10.795L15.826 12.295ZM21.1431 15.475L21.1336 17.6026L22.6336 17.6093L22.6431 15.4817L21.1431 15.475ZM17.9536 12.2855C18.8195 12.2817 19.4056 12.2802 19.8501 12.3287C20.2795 12.3756 20.4806 12.4612 20.6165 12.5664L21.5345 11.3801C21.0901 11.0362 20.577 10.8992 20.0129 10.8376C19.464 10.7776 18.7776 10.7818 17.9469 10.7855L17.9536 12.2855ZM22.6431 15.4817C22.6468 14.651 22.651 13.9646 22.591 13.4157C22.5294 12.8516 22.3924 12.3385 22.0485 11.8941L20.8622 12.8121C20.9674 12.948 21.053 13.1491 21.0999 13.5785C21.1484 14.023 21.1469 14.6091 21.1431 15.475L22.6431 15.4817ZM20.6165 12.5664C20.7085 12.6376 20.791 12.7201 20.8622 12.8121L22.0485 11.8941C21.8996 11.7017 21.7269 11.529 21.5345 11.3801L20.6165 12.5664Z" fill="white"/>
</g>
<defs>
<filter id="filter0_b_511_173" x="-11.1111" y="-11.1111" width="54.2222" height="54.2222" filterUnits="userSpaceOnUse" color-interpolation-filters="sRGB">
<feFlood flood-opacity="0" result="BackgroundImageFix"/>
<feGaussianBlur in="BackgroundImageFix" stdDeviation="5.55556"/>
<feComposite in2="SourceAlpha" operator="in" result="effect1_backgroundBlur_511_173"/>
<feBlend mode="normal" in="SourceGraphic" in2="effect1_backgroundBlur_511_173" result="shape"/>
</filter>
<linearGradient id="paint0_linear_511_173" x1="0" y1="32" x2="36.8041" y2="24.8989" gradientUnits="userSpaceOnUse">
<stop stop-color="#A330CB" stop-opacity="0.1"/>
<stop offset="1" stop-color="#A330CB"/>
</linearGradient>
</defs>
</svg>
