<svg width="156" height="44" viewBox="0 0 156 44" fill="none" xmlns="http://www.w3.org/2000/svg">
<path d="M35.3751 22.0001C35.3751 12.4534 27.6361 4.71436 18.0894 4.71436C8.54279 4.71436 0.803711 12.4534 0.803711 22.0001C0.803711 31.5467 8.54279 39.2858 18.0894 39.2858C27.6361 39.2858 35.3751 31.5467 35.3751 22.0001Z" fill="url(#paint0_linear_470_511)"/>
<path fill-rule="evenodd" clip-rule="evenodd" d="M22.8162 12.5508H13.1152L15.5404 16.7665H20.3909L22.8162 12.5508ZM23.8106 21.4783L21.3161 17.1421L23.7414 12.9264L28.6612 21.4783H23.8106ZM21.3311 26.8325L23.8406 22.4703H28.6911L23.7563 31.0482L21.3311 26.8325ZM15.5104 27.2341H20.4209L22.8461 31.4499H13.0852L15.5104 27.2341ZM12.3378 22.4703L14.7238 26.6177L12.2985 30.8335L7.4873 22.4703H12.3378ZM14.7387 17.3569L12.3678 21.4783H7.51729L12.3135 13.1412L14.7387 17.3569Z" fill="white"/>
<path d="M49.9198 30.0111C48.8931 30.0111 47.9691 29.8351 47.1478 29.4831C46.3265 29.1164 45.6811 28.6031 45.2118 27.9431C44.7425 27.2831 44.5078 26.5131 44.5078 25.6331H47.1918C47.2505 26.2931 47.5071 26.8358 47.9618 27.2611C48.4311 27.6864 49.0838 27.8991 49.9198 27.8991C50.7851 27.8991 51.4598 27.6938 51.9438 27.2831C52.4278 26.8578 52.6698 26.3151 52.6698 25.6551C52.6698 25.1418 52.5158 24.7238 52.2078 24.4011C51.9145 24.0784 51.5405 23.8291 51.0858 23.6531C50.6458 23.4771 50.0298 23.2864 49.2378 23.0811C48.2405 22.8171 47.4265 22.5531 46.7958 22.2891C46.1798 22.0104 45.6518 21.5851 45.2118 21.0131C44.7718 20.4411 44.5518 19.6784 44.5518 18.7251C44.5518 17.8451 44.7718 17.0751 45.2118 16.4151C45.6518 15.7551 46.2678 15.2491 47.0598 14.8971C47.8518 14.5451 48.7685 14.3691 49.8098 14.3691C51.2911 14.3691 52.5011 14.7431 53.4398 15.4911C54.3931 16.2244 54.9211 17.2364 55.0238 18.5271H52.2518C52.2078 17.9698 51.9438 17.4931 51.4598 17.0971C50.9758 16.7011 50.3378 16.5031 49.5458 16.5031C48.8271 16.5031 48.2405 16.6864 47.7858 17.0531C47.3311 17.4198 47.1038 17.9478 47.1038 18.6371C47.1038 19.1064 47.2431 19.4951 47.5218 19.8031C47.8151 20.0964 48.1818 20.3311 48.6218 20.5071C49.0618 20.6831 49.6631 20.8738 50.4258 21.0791C51.4378 21.3578 52.2591 21.6364 52.8898 21.9151C53.5351 22.1938 54.0778 22.6264 54.5178 23.2131C54.9725 23.7851 55.1998 24.5551 55.1998 25.5231C55.1998 26.3004 54.9871 27.0338 54.5618 27.7231C54.1511 28.4124 53.5425 28.9698 52.7358 29.3951C51.9438 29.8058 51.0051 30.0111 49.9198 30.0111ZM57.1031 23.7411C57.1031 22.5238 57.3525 21.4458 57.8511 20.5071C58.3645 19.5684 59.0538 18.8424 59.9191 18.3291C60.7991 17.8011 61.7671 17.5371 62.8231 17.5371C63.7765 17.5371 64.6051 17.7278 65.3091 18.1091C66.0278 18.4758 66.5998 18.9378 67.0251 19.4951V17.7351H69.5551V29.8571H67.0251V28.0531C66.5998 28.6251 66.0205 29.1018 65.2871 29.4831C64.5538 29.8644 63.7178 30.0551 62.7791 30.0551C61.7378 30.0551 60.7845 29.7911 59.9191 29.2631C59.0538 28.7204 58.3645 27.9724 57.8511 27.0191C57.3525 26.0511 57.1031 24.9584 57.1031 23.7411ZM67.0251 23.7851C67.0251 22.9491 66.8491 22.2231 66.4971 21.6071C66.1598 20.9911 65.7125 20.5218 65.1551 20.1991C64.5978 19.8764 63.9965 19.7151 63.3511 19.7151C62.7058 19.7151 62.1045 19.8764 61.5471 20.1991C60.9898 20.5071 60.5351 20.9691 60.1831 21.5851C59.8458 22.1864 59.6771 22.9051 59.6771 23.7411C59.6771 24.5771 59.8458 25.3104 60.1831 25.9411C60.5351 26.5718 60.9898 27.0558 61.5471 27.3931C62.1191 27.7158 62.7205 27.8771 63.3511 27.8771C63.9965 27.8771 64.5978 27.7158 65.1551 27.3931C65.7125 27.0704 66.1598 26.6011 66.4971 25.9851C66.8491 25.3544 67.0251 24.6211 67.0251 23.7851ZM75.5553 19.7811V26.4911C75.5553 26.9458 75.658 27.2758 75.8633 27.4811C76.0833 27.6718 76.45 27.7671 76.9633 27.7671H78.5033V29.8571H76.5233C75.394 29.8571 74.5286 29.5931 73.9273 29.0651C73.326 28.5371 73.0253 27.6791 73.0253 26.4911V19.7811H71.5953V17.7351H73.0253V14.7211H75.5553V17.7351H78.5033V19.7811H75.5553ZM91.7049 23.4991C91.7049 23.9538 91.6758 24.3644 91.6169 24.7311H82.3549C82.428 25.6991 82.7878 26.4764 83.4329 27.0631C84.078 27.6498 84.87 27.9431 85.8089 27.9431C87.158 27.9431 88.1118 27.3784 88.6689 26.2491H91.3749C91.008 27.3638 90.3409 28.2804 89.3729 28.9991C88.4198 29.7031 87.2318 30.0551 85.8089 30.0551C84.65 30.0551 83.6089 29.7984 82.6849 29.2851C81.7758 28.7571 81.0569 28.0238 80.5289 27.0851C80.0158 26.1318 79.7589 25.0318 79.7589 23.7851C79.7589 22.5384 80.008 21.4458 80.5069 20.5071C81.02 19.5538 81.7318 18.8204 82.6409 18.3071C83.5649 17.7938 84.6209 17.5371 85.8089 17.5371C86.9529 17.5371 87.972 17.7864 88.8669 18.2851C89.7618 18.7838 90.458 19.4878 90.9569 20.3971C91.4558 21.2918 91.7049 22.3258 91.7049 23.4991ZM89.0869 22.7071C89.072 21.7831 88.742 21.0424 88.0969 20.4851C87.4518 19.9278 86.652 19.6491 85.6989 19.6491C84.8338 19.6491 84.0929 19.9278 83.4769 20.4851C82.8609 21.0278 82.494 21.7684 82.3769 22.7071H89.0869ZM96.4608 13.5771V29.8571H93.9528V13.5771H96.4608ZM102.042 13.5771V29.8571H99.5337V13.5771H102.042ZM106.391 16.1291C105.936 16.1291 105.555 15.9751 105.247 15.6671C104.939 15.3591 104.785 14.9778 104.785 14.5231C104.785 14.0684 104.939 13.6871 105.247 13.3791C105.555 13.0711 105.936 12.9171 106.391 12.9171C106.831 12.9171 107.205 13.0711 107.513 13.3791C107.821 13.6871 107.975 14.0684 107.975 14.5231C107.975 14.9778 107.821 15.3591 107.513 15.6671C107.205 15.9751 106.831 16.1291 106.391 16.1291ZM107.623 17.7351V29.8571H105.115V17.7351H107.623ZM113.622 19.7811V26.4911C113.622 26.9458 113.724 27.2758 113.93 27.4811C114.15 27.6718 114.516 27.7671 115.03 27.7671H116.57V29.8571H114.59C113.46 29.8571 112.595 29.5931 111.994 29.0651C111.392 28.5371 111.092 27.6791 111.092 26.4911V19.7811H109.662V17.7351H111.092V14.7211H113.622V17.7351H116.57V19.7811H113.622ZM129.771 23.4991C129.771 23.9538 129.741 24.3644 129.683 24.7311H120.421C120.494 25.6991 120.853 26.4764 121.499 27.0631C122.144 27.6498 122.936 27.9431 123.875 27.9431C125.224 27.9431 126.177 27.3784 126.735 26.2491H129.441C129.074 27.3638 128.407 28.2804 127.439 28.9991C126.485 29.7031 125.297 30.0551 123.875 30.0551C122.716 30.0551 121.675 29.7984 120.751 29.2851C119.841 28.7571 119.123 28.0238 118.595 27.0851C118.081 26.1318 117.825 25.0318 117.825 23.7851C117.825 22.5384 118.074 21.4458 118.573 20.5071C119.086 19.5538 119.797 18.8204 120.707 18.3071C121.631 17.7938 122.687 17.5371 123.875 17.5371C125.019 17.5371 126.038 17.7864 126.933 18.2851C127.827 18.7838 128.524 19.4878 129.023 20.3971C129.521 21.2918 129.771 22.3258 129.771 23.4991ZM127.153 22.7071C127.138 21.7831 126.808 21.0424 126.163 20.4851C125.517 19.9278 124.718 19.6491 123.765 19.6491C122.899 19.6491 122.159 19.9278 121.543 20.4851C120.927 21.0278 120.56 21.7684 120.443 22.7071H127.153ZM146.732 26.7331H140.33L139.23 29.8571H136.612L142.09 14.5451H144.994L150.472 29.8571H147.832L146.732 26.7331ZM146.028 24.6871L143.542 17.5811L141.034 24.6871H146.028ZM155.142 14.5671V29.8571H152.634V14.5671H155.142Z" fill="white"/>
<defs>
<linearGradient id="paint0_linear_470_511" x1="0.803711" y1="35.0912" x2="36.6718" y2="33.1746" gradientUnits="userSpaceOnUse">
<stop stop-color="#6356FE"/>
<stop offset="0.303754" stop-color="#764AEF"/>
<stop offset="0.618202" stop-color="#8A3EDF"/>
<stop offset="1" stop-color="#A330CB"/>
</linearGradient>
</defs>
</svg>
